<?xml version="1.0" encoding="utf-8"?>
<!-- Generator: Adobe Illustrator 26.1.0, SVG Export Plug-In . SVG Version: 6.00 Build 0)  -->
<svg version="1.1" id="Layer_1" xmlns="http://www.w3.org/2000/svg" xmlns:xlink="http://www.w3.org/1999/xlink" x="0px" y="0px"
	 viewBox="0 0 174 34" style="enable-background:new 0 0 174 34;" xml:space="preserve">
<style type="text/css">
	.st0{fill:#FFFFFF;}
	.st1{fill:#B6B6B7;}
	.st2{fill:#8CCBC3;}
</style>
<g>
	<g>
		<path class="st0" d="M74.61,12.58c-1.48-1.02-3.31-1.53-5.43-1.53c-1.5,0-2.97,0.16-4.37,0.47c-1.3,0.29-2.32,0.65-3.03,1.07v3.12
			c0.71-0.48,1.56-0.88,2.52-1.17c1.2-0.37,2.43-0.56,3.63-0.56c3.5,0,5.27,1.49,5.27,4.42v2.5l-0.49-0.29
			c-1.55-0.93-3.53-1.4-5.87-1.4c-2.24,0-3.99,0.53-5.2,1.57c-1.19,1.03-1.8,2.61-1.8,4.7c0,2.21,0.73,3.79,2.18,4.72
			c1.5,0.95,3.43,1.44,5.74,1.44c2.92,0,5.19-0.35,6.75-1.04c1.5-0.66,2.22-1.81,2.22-3.51v-9.65
			C76.77,15.21,76.05,13.57,74.61,12.58 M73.2,26.86c0,0.86-0.44,1.47-1.26,1.75c-0.74,0.26-1.94,0.38-3.69,0.38
			c-1.29,0-2.42-0.3-3.37-0.89c-0.99-0.62-1.5-1.57-1.5-2.81c0-1.18,0.45-2.08,1.33-2.68c0.84-0.57,2.07-0.86,3.66-0.86
			c1.67,0,3.23,0.31,4.63,0.91l0.19,0.08V26.86z"/>
	</g>
	<g>
		<path class="st0" d="M1.57,31.57V2.15h3.58v12.11c0.84-0.97,1.8-1.75,2.89-2.35c1.09-0.59,2.33-0.89,3.73-0.89
			c1.17,0,2.23,0.22,3.18,0.66c0.95,0.44,1.75,1.1,2.42,1.97c0.67,0.87,1.18,1.95,1.54,3.24c0.36,1.29,0.54,2.77,0.54,4.44
			c0,1.49-0.2,2.88-0.6,4.17c-0.4,1.29-0.98,2.4-1.73,3.34c-0.75,0.94-1.67,1.68-2.76,2.22c-1.09,0.54-2.31,0.81-3.67,0.81
			c-1.31,0-2.41-0.25-3.33-0.76c-0.91-0.51-1.71-1.21-2.39-2.12l-0.18,1.84c-0.11,0.51-0.41,0.76-0.92,0.76H1.57z M10.6,13.85
			c-1.16,0-2.17,0.27-3.05,0.8c-0.87,0.53-1.67,1.29-2.41,2.26v9.79c0.64,0.88,1.35,1.5,2.13,1.86c0.78,0.36,1.65,0.54,2.61,0.54
			c1.89,0,3.34-0.67,4.35-2.02c1.01-1.34,1.52-3.26,1.52-5.75c0-1.32-0.12-2.45-0.35-3.4c-0.23-0.95-0.57-1.72-1.01-2.33
			c-0.44-0.61-0.98-1.05-1.62-1.33S11.41,13.85,10.6,13.85"/>
	</g>
	<g>
		<path class="st0" d="M26.54,4.98c0,0.35-0.07,0.67-0.21,0.97c-0.14,0.3-0.33,0.57-0.56,0.8c-0.23,0.23-0.5,0.42-0.81,0.55
			c-0.31,0.13-0.63,0.2-0.98,0.2c-0.35,0-0.67-0.07-0.97-0.2c-0.3-0.13-0.57-0.32-0.8-0.55c-0.23-0.23-0.42-0.5-0.55-0.8
			c-0.13-0.3-0.2-0.62-0.2-0.97c0-0.35,0.07-0.68,0.2-0.99c0.13-0.31,0.32-0.59,0.55-0.82c0.23-0.23,0.5-0.42,0.8-0.55
			c0.3-0.13,0.62-0.2,0.97-0.2c0.35,0,0.67,0.07,0.98,0.2c0.31,0.13,0.58,0.32,0.81,0.55c0.23,0.23,0.42,0.51,0.56,0.82
			C26.47,4.31,26.54,4.64,26.54,4.98 M25.74,31.57h-3.56V11.34h3.56V31.57z"/>
	</g>
	<g>
		<path class="st0" d="M44.14,12.85c0,0.25-0.05,0.5-0.14,0.73c-0.09,0.23-0.21,0.44-0.36,0.63L32.69,28.8h11.05v2.78H28.5v-1.48
			c0-0.17,0.04-0.38,0.13-0.61c0.09-0.23,0.21-0.46,0.37-0.67l11.01-14.68H29.12v-2.8h15.02V12.85z"/>
	</g>
	<g>
		<path class="st0" d="M46.48,31.64V11.41h2.04c0.39,0,0.65,0.07,0.8,0.22c0.15,0.15,0.25,0.4,0.3,0.76l0.24,3.16
			c0.69-1.41,1.55-2.51,2.57-3.31c1.02-0.79,2.21-1.19,3.59-1.19c0.56,0,1.07,0.06,1.52,0.19c0.45,0.13,0.87,0.3,1.26,0.53
			l-0.46,2.66c-0.09,0.33-0.3,0.5-0.62,0.5c-0.19,0-0.47-0.06-0.86-0.19c-0.39-0.13-0.93-0.19-1.62-0.19
			c-1.24,0-2.27,0.36-3.11,1.08c-0.83,0.72-1.53,1.76-2.09,3.14v12.88H46.48z"/>
	</g>
	<g>
		<path class="st0" d="M79.6,31.64V2.22h3.56v11.91c0.87-0.92,1.82-1.65,2.88-2.21c1.05-0.55,2.26-0.83,3.64-0.83
			c1.11,0,2.08,0.18,2.93,0.55c0.85,0.37,1.55,0.89,2.12,1.56c0.57,0.67,1,1.48,1.29,2.43c0.29,0.95,0.44,1.99,0.44,3.14v12.88
			h-3.56V18.76c0-1.53-0.35-2.72-1.05-3.57c-0.7-0.85-1.77-1.27-3.21-1.27c-1.05,0-2.03,0.25-2.95,0.76
			c-0.91,0.51-1.75,1.19-2.53,2.06v14.9H79.6z"/>
	</g>
	<path class="st1" d="M100.13,31.57V11.7h1.04c0.35,0,0.55,0.17,0.6,0.5l0.18,2.88c0.39-0.55,0.8-1.05,1.24-1.5
		c0.44-0.45,0.91-0.84,1.41-1.17c0.5-0.33,1.03-0.58,1.6-0.76c0.57-0.18,1.16-0.27,1.79-0.27c1.45,0,2.61,0.42,3.48,1.27
		c0.87,0.85,1.45,2.02,1.76,3.53c0.24-0.83,0.57-1.54,1.01-2.14c0.43-0.6,0.93-1.1,1.49-1.49c0.56-0.39,1.17-0.69,1.83-0.88
		c0.66-0.19,1.33-0.29,2.02-0.29c0.98,0,1.87,0.16,2.65,0.49c0.78,0.33,1.45,0.81,2,1.45c0.55,0.64,0.97,1.43,1.27,2.36
		c0.29,0.93,0.44,2,0.44,3.2v12.71h-1.9V18.87c0-1.94-0.42-3.43-1.26-4.44s-2.04-1.53-3.6-1.53c-0.69,0-1.36,0.13-1.99,0.38
		c-0.63,0.25-1.19,0.63-1.68,1.13c-0.49,0.5-0.87,1.12-1.16,1.87c-0.29,0.75-0.43,1.61-0.43,2.6v12.71h-1.9V18.87
		c0-1.93-0.39-3.41-1.16-4.43c-0.77-1.03-1.9-1.54-3.38-1.54c-1.08,0-2.08,0.32-3,0.97c-0.92,0.65-1.74,1.54-2.46,2.69v15.02H100.13
		z"/>
	<path class="st1" d="M137.41,11.38c1.12,0,2.15,0.19,3.11,0.58c0.95,0.39,1.78,0.95,2.48,1.69c0.7,0.74,1.25,1.65,1.64,2.73
		c0.39,1.08,0.59,2.32,0.59,3.72c0,0.29-0.04,0.49-0.13,0.6c-0.09,0.11-0.22,0.16-0.41,0.16h-14.34v0.38c0,1.49,0.17,2.8,0.52,3.94
		c0.35,1.13,0.84,2.08,1.48,2.85c0.64,0.77,1.41,1.34,2.32,1.73c0.91,0.39,1.92,0.58,3.04,0.58c1,0,1.86-0.11,2.6-0.33
		c0.73-0.22,1.35-0.47,1.85-0.74c0.5-0.27,0.9-0.52,1.19-0.74c0.29-0.22,0.51-0.33,0.64-0.33c0.17,0,0.31,0.07,0.4,0.2l0.52,0.64
		c-0.32,0.4-0.74,0.77-1.27,1.12c-0.53,0.35-1.11,0.64-1.76,0.89c-0.65,0.25-1.34,0.44-2.08,0.59c-0.74,0.15-1.48,0.22-2.23,0.22
		c-1.36,0-2.6-0.24-3.72-0.71c-1.12-0.47-2.08-1.16-2.88-2.07c-0.8-0.91-1.42-2.01-1.86-3.33c-0.44-1.31-0.66-2.81-0.66-4.5
		c0-1.42,0.2-2.74,0.61-3.95c0.41-1.21,0.99-2.24,1.76-3.12c0.77-0.87,1.7-1.55,2.82-2.05C134.74,11.62,136,11.38,137.41,11.38
		 M137.44,12.79c-1.02,0-1.94,0.16-2.75,0.48c-0.81,0.32-1.51,0.78-2.1,1.38c-0.59,0.6-1.07,1.32-1.44,2.16
		c-0.37,0.84-0.61,1.78-0.73,2.82h13.08c0-1.07-0.15-2.02-0.44-2.87c-0.29-0.85-0.7-1.56-1.24-2.15c-0.53-0.59-1.17-1.04-1.91-1.35
		C139.17,12.95,138.34,12.79,137.44,12.79"/>
	<path class="st1" d="M162.43,31.57c-0.33,0-0.52-0.17-0.57-0.52l-0.2-3.14c-0.88,1.2-1.91,2.15-3.09,2.86
		c-1.18,0.71-2.5,1.06-3.97,1.06c-2.44,0-4.34-0.85-5.71-2.54c-1.37-1.69-2.05-4.23-2.05-7.61c0-1.45,0.19-2.81,0.57-4.07
		c0.38-1.26,0.94-2.35,1.68-3.28c0.74-0.93,1.65-1.65,2.72-2.19c1.07-0.53,2.31-0.8,3.71-0.8c1.35,0,2.51,0.25,3.5,0.75
		c0.99,0.5,1.84,1.23,2.56,2.19V2.51h1.9v29.07H162.43z M155.14,30.29c1.32,0,2.51-0.34,3.58-1.02c1.07-0.68,2.02-1.62,2.86-2.84
		V15.95c-0.77-1.13-1.62-1.93-2.55-2.4c-0.93-0.47-1.98-0.7-3.15-0.7s-2.2,0.21-3.08,0.64c-0.88,0.43-1.62,1.03-2.21,1.81
		c-0.59,0.78-1.04,1.71-1.34,2.8c-0.3,1.09-0.45,2.28-0.45,3.59c0,2.96,0.55,5.13,1.64,6.52C151.53,29.6,153.1,30.29,155.14,30.29"
		/>
	<path class="st2" d="M166.38,28.86c0-0.41,0.08-0.81,0.23-1.18c0.15-0.37,0.37-0.69,0.64-0.96c0.27-0.27,0.6-0.48,0.97-0.64
		c0.37-0.16,0.77-0.24,1.2-0.24c0.41,0,0.81,0.08,1.18,0.24c0.37,0.16,0.69,0.37,0.96,0.64c0.27,0.27,0.48,0.59,0.64,0.96
		c0.16,0.37,0.24,0.77,0.24,1.18c0,0.43-0.08,0.82-0.24,1.19c-0.16,0.37-0.37,0.68-0.64,0.95c-0.27,0.27-0.59,0.48-0.96,0.63
		c-0.37,0.15-0.77,0.23-1.18,0.23c-0.43,0-0.83-0.08-1.2-0.23c-0.37-0.15-0.7-0.36-0.97-0.63c-0.27-0.27-0.49-0.58-0.64-0.95
		C166.45,29.68,166.38,29.28,166.38,28.86"/>
</g>
</svg>
